<svg xmlns="http://www.w3.org/2000/svg" xmlns:xlink="http://www.w3.org/1999/xlink" width="300" zoomAndPan="magnify" viewBox="0 0 224.87999 225" height="300" preserveAspectRatio="xMidYMid meet" version="1.0"><defs><clipPath id="b2438c09da"><path d="M 197 57 L 219.363281 57 L 219.363281 91 L 197 91 Z M 197 57 " clip-rule="nonzero"/></clipPath><clipPath id="9d9b1c7a0c"><path d="M 5.726562 6.398438 L 109 6.398438 L 109 211 L 5.726562 211 Z M 5.726562 6.398438 " clip-rule="nonzero"/></clipPath></defs><path fill="#ffffff" d="M 123.105469 90.972656 L 144.914062 90.972656 L 144.914062 85.765625 L 131.898438 85.765625 L 133.007812 84.742188 C 139.539062 78.46875 144.148438 73.515625 144.148438 67.199219 C 144.148438 62.207031 140.902344 57.167969 133.648438 57.167969 C 130.148438 57.167969 126.777344 58.363281 124.171875 60.582031 L 123.703125 60.96875 L 125.75 65.535156 L 126.5625 64.851562 C 127.671875 63.914062 129.976562 62.375 132.75 62.375 C 136.25 62.375 138.214844 64.253906 138.214844 67.710938 C 138.171875 72.066406 134.800781 75.992188 126.691406 83.675781 L 123.0625 87.175781 L 123.0625 90.972656 Z M 123.105469 90.972656 " fill-opacity="1" fill-rule="nonzero"/><path fill="#ffffff" d="M 173.8125 77.359375 L 169.375 77.359375 L 169.375 57.722656 L 163.527344 57.722656 L 149.011719 78.46875 L 149.011719 82.351562 L 163.695312 82.351562 L 163.695312 90.972656 L 169.375 90.972656 L 169.375 82.351562 L 173.8125 82.351562 Z M 163.695312 67.625 L 163.695312 77.359375 L 155.671875 77.359375 L 162.585938 67.753906 C 162.757812 67.457031 162.929688 67.199219 163.097656 66.902344 L 163.695312 65.875 Z M 163.695312 67.625 " fill-opacity="1" fill-rule="nonzero"/><path fill="#ffffff" d="M 189.433594 56.015625 L 175.261719 92.894531 L 180.257812 92.894531 L 194.511719 56.015625 Z M 189.433594 56.015625 " fill-opacity="1" fill-rule="nonzero"/><g clip-path="url(#b2438c09da)"><path fill="#ffffff" d="M 219.140625 57.722656 L 197.542969 57.722656 L 197.542969 62.890625 L 212.566406 62.890625 L 198.824219 90.972656 L 205.054688 90.972656 L 219.140625 61.523438 Z M 219.140625 57.722656 " fill-opacity="1" fill-rule="nonzero"/></g><path fill="#ffffff" d="M 191.3125 123.625 C 190.371094 123.5 189.433594 123.753906 188.664062 124.351562 C 187.898438 124.949219 187.429688 125.804688 187.34375 126.742188 C 186.703125 131.992188 185.59375 137.199219 184.054688 142.191406 C 183.457031 144.070312 184.527344 146.078125 186.402344 146.675781 C 186.746094 146.804688 187.085938 146.84375 187.46875 146.84375 C 189.050781 146.84375 190.414062 145.820312 190.886719 144.328125 C 192.550781 138.90625 193.746094 133.273438 194.429688 127.59375 C 194.683594 125.675781 193.277344 123.882812 191.3125 123.625 Z M 191.3125 123.625 " fill-opacity="1" fill-rule="nonzero"/><path fill="#ffffff" d="M 182.859375 155.339844 C 182.007812 154.914062 181.066406 154.828125 180.128906 155.082031 C 179.234375 155.382812 178.464844 155.980469 178.039062 156.832031 C 175.605469 161.484375 172.703125 165.96875 169.457031 170.109375 C 168.261719 171.644531 168.519531 173.90625 170.054688 175.101562 C 170.695312 175.613281 171.464844 175.871094 172.234375 175.871094 C 173.34375 175.871094 174.367188 175.359375 175.050781 174.503906 C 178.550781 170.023438 181.664062 165.15625 184.3125 160.121094 C 184.738281 159.265625 184.824219 158.328125 184.566406 157.386719 C 184.3125 156.535156 183.671875 155.765625 182.859375 155.339844 Z M 182.859375 155.339844 " fill-opacity="1" fill-rule="nonzero"/><path fill="#ffffff" d="M 131.726562 198.066406 C 126.820312 199.941406 121.695312 201.394531 116.488281 202.332031 C 114.570312 202.675781 113.289062 204.550781 113.628906 206.515625 C 113.929688 208.222656 115.421875 209.417969 117.128906 209.417969 C 117.34375 209.417969 117.554688 209.417969 117.769531 209.375 C 123.359375 208.351562 128.910156 206.773438 134.246094 204.722656 C 135.140625 204.382812 135.824219 203.699219 136.25 202.84375 C 136.636719 201.992188 136.679688 201.011719 136.335938 200.113281 C 135.652344 198.277344 133.5625 197.382812 131.726562 198.066406 Z M 131.726562 198.066406 " fill-opacity="1" fill-rule="nonzero"/><path fill="#ffffff" d="M 158.617188 181.675781 C 154.691406 185.175781 150.421875 188.332031 145.898438 191.109375 C 144.234375 192.132812 143.679688 194.351562 144.703125 196.015625 C 145.34375 197.082031 146.496094 197.722656 147.777344 197.722656 C 148.414062 197.722656 149.054688 197.550781 149.652344 197.210938 C 154.519531 194.265625 159.128906 190.808594 163.398438 187.011719 C 164.847656 185.6875 165.019531 183.425781 163.695312 181.972656 C 162.375 180.480469 160.109375 180.351562 158.617188 181.675781 Z M 158.617188 181.675781 " fill-opacity="1" fill-rule="nonzero"/><g clip-path="url(#9d9b1c7a0c)"><path fill="#ffffff" d="M 100.398438 203.828125 C 52.125 203.828125 12.855469 164.558594 12.855469 116.285156 C 12.855469 93.578125 21.5625 72.023438 37.3125 55.632812 C 52.421875 39.925781 72.527344 30.492188 94.082031 28.957031 L 83.496094 37.109375 C 82.726562 37.707031 82.257812 38.515625 82.128906 39.5 C 82 40.4375 82.257812 41.375 82.855469 42.144531 C 83.539062 43.042969 84.5625 43.554688 85.671875 43.554688 C 86.484375 43.554688 87.207031 43.296875 87.847656 42.828125 L 107.054688 28.058594 C 107.910156 27.375 108.464844 26.308594 108.464844 25.242188 C 108.464844 24.132812 107.953125 23.066406 107.054688 22.425781 L 87.847656 7.65625 C 86.269531 6.460938 84.050781 6.761719 82.855469 8.296875 C 82.257812 9.066406 82 10.003906 82.128906 10.945312 C 82.257812 11.882812 82.726562 12.738281 83.496094 13.335938 L 94.59375 21.914062 C 70.945312 23.320312 48.878906 33.480469 32.277344 50.679688 C 15.160156 68.308594 5.726562 91.65625 5.726562 116.285156 C 5.726562 168.484375 48.195312 210.953125 100.398438 210.953125 C 102.363281 210.953125 103.984375 209.332031 103.984375 207.371094 C 103.984375 205.449219 102.402344 203.828125 100.398438 203.828125 Z M 100.398438 203.828125 " fill-opacity="1" fill-rule="nonzero"/></g><path fill="#ffffff" d="M 100.398438 45.601562 C 61.429688 45.601562 29.714844 77.316406 29.714844 116.285156 C 29.714844 155.253906 61.429688 186.96875 100.398438 186.96875 C 139.367188 186.96875 171.082031 155.253906 171.082031 116.285156 C 171.082031 114.320312 169.457031 112.699219 167.496094 112.699219 C 165.53125 112.699219 163.910156 114.320312 163.910156 116.285156 C 163.910156 151.328125 135.398438 179.839844 100.355469 179.839844 C 65.3125 179.839844 36.800781 151.328125 36.800781 116.285156 C 36.800781 81.242188 65.3125 52.730469 100.355469 52.730469 C 102.320312 52.730469 103.941406 51.109375 103.941406 49.144531 C 103.941406 47.179688 102.402344 45.601562 100.398438 45.601562 Z M 100.398438 45.601562 " fill-opacity="1" fill-rule="nonzero"/><path fill="#ffffff" d="M 100.054688 70.402344 C 98.265625 70.570312 96.8125 72.195312 96.8125 74.070312 L 96.8125 115.558594 L 62.964844 115.558594 C 61.042969 115.558594 59.421875 117.136719 59.378906 119.058594 C 59.378906 120.039062 59.722656 120.9375 60.402344 121.621094 C 61.085938 122.304688 61.984375 122.6875 62.964844 122.6875 L 100.355469 122.6875 C 102.320312 122.6875 103.941406 121.066406 103.941406 119.101562 L 103.941406 73.984375 C 103.941406 72.960938 103.515625 72.023438 102.789062 71.339844 C 102.0625 70.65625 101.082031 70.316406 100.054688 70.402344 Z M 100.054688 70.402344 " fill-opacity="1" fill-rule="nonzero"/></svg>