<svg xmlns="http://www.w3.org/2000/svg" xmlns:xlink="http://www.w3.org/1999/xlink" width="300" zoomAndPan="magnify" viewBox="0 0 224.87999 225" height="300" preserveAspectRatio="xMidYMid meet" version="1.0"><defs><clipPath id="2f963d06ea"><path d="M 2 11.023438 L 224.761719 11.023438 L 224.761719 208 L 2 208 Z M 2 11.023438 " clip-rule="nonzero"/></clipPath></defs><g clip-path="url(#2f963d06ea)"><path fill="#ffffff" d="M 194.347656 146.027344 L 183.917969 129.691406 L 181.34375 102.527344 C 182.476562 102.613281 183.875 102.394531 184.351562 101.257812 C 191.726562 100.386719 195.261719 90.601562 190.070312 85.230469 C 192.25 84.3125 191.554688 80.820312 189.152344 80.863281 C 189.152344 80.863281 175.191406 80.863281 175.191406 80.863281 L 167.902344 80.863281 C 163.976562 80.820312 160.089844 83.175781 158.347656 86.714844 L 149.136719 86.714844 C 151.800781 82.957031 149.398438 77.324219 144.863281 76.625 C 144.863281 76.625 105.632812 69.679688 105.632812 69.679688 C 105.589844 60.070312 100.132812 51.378906 91.929688 47.492188 L 91.972656 44.828125 C 96.730469 43.039062 99.960938 38.496094 99.960938 33.253906 L 99.960938 27.007812 C 100.003906 27.007812 100.046875 27.007812 100.089844 27.007812 L 108.511719 27.007812 C 109.515625 27.007812 110.433594 26.308594 110.695312 25.347656 C 110.957031 24.386719 110.5625 23.339844 109.691406 22.816406 L 99.609375 16.746094 C 97.210938 13.164062 93.285156 11.066406 89.007812 11.066406 L 82.984375 11.066406 C 75.917969 11.066406 70.15625 16.832031 70.15625 23.953125 L 70.15625 32.949219 C 70.15625 37.578125 72.644531 41.773438 76.484375 44 L 76.308594 46.3125 C 70.722656 48.367188 66.882812 53.957031 66.882812 60.289062 L 66.882812 97.503906 C 66.882812 102.351562 68.933594 106.675781 72.207031 109.734375 C 70.285156 109.820312 67.058594 109.078125 66.882812 111.917969 L 66.316406 111.917969 C 66.359375 111.699219 66.402344 111.480469 66.402344 111.261719 L 66.402344 66.796875 C 66.402344 65.617188 65.96875 64.570312 65.3125 63.699219 C 66.011719 62.824219 66.402344 61.777344 66.402344 60.597656 L 66.402344 16.21875 C 66.402344 13.335938 63.914062 11.023438 60.90625 11.023438 L 11.726562 11.023438 C 8.671875 11.023438 6.226562 13.335938 6.226562 16.21875 L 6.226562 60.640625 C 6.226562 61.820312 6.664062 62.867188 7.320312 63.742188 C 6.621094 64.613281 6.226562 65.664062 6.226562 66.84375 L 6.226562 111.261719 C 6.226562 111.566406 6.273438 111.828125 6.316406 112.089844 C 0.03125 113.621094 1.078125 122.96875 7.625 123.011719 C 7.625 123.011719 23.507812 123.011719 23.507812 123.011719 C 23.769531 123.011719 23.988281 123.230469 23.988281 123.492188 L 23.988281 145.109375 C 22.984375 146.421875 22.113281 147.730469 21.238281 149.171875 L 10.679688 149.171875 C 7.929688 149.171875 5.660156 151.445312 5.660156 154.195312 L 5.660156 164.199219 C 5.660156 166.949219 7.929688 169.222656 10.679688 169.222656 L 12.949219 169.222656 C 11.859375 173.980469 11.246094 178.917969 11.246094 183.941406 C 11.246094 185.207031 12.25 186.210938 13.515625 186.210938 L 34.460938 186.210938 C 37.953125 214.164062 77.398438 214.164062 80.890625 186.210938 L 161.707031 186.210938 C 164.804688 186.210938 167.726562 184.726562 169.558594 182.28125 L 170.300781 182.191406 C 169.167969 195.601562 180.078125 207.351562 193.515625 207.261719 C 208.617188 207.480469 220.222656 192.28125 216.035156 177.78125 L 222.667969 177.125 C 223.886719 177.039062 224.847656 175.859375 224.71875 174.636719 C 223.101562 158.738281 210.1875 146.683594 194.347656 146.027344 Z M 184.613281 88.199219 L 185.835938 87.546875 C 189.285156 89.730469 188.410156 95.40625 184.613281 96.585938 Z M 177.414062 85.449219 L 180.558594 85.449219 C 180.296875 85.886719 180.078125 86.320312 180.078125 86.847656 C 180.078125 86.847656 180.078125 98.027344 180.078125 98.027344 C 179.421875 98.027344 178.113281 98.027344 177.414062 98.027344 Z M 161.925781 89.773438 C 162.710938 87.238281 165.242188 85.40625 167.859375 85.449219 C 167.859375 85.449219 172.875 85.449219 172.875 85.449219 L 172.875 98.027344 C 171.785156 98.027344 168.949219 98.027344 167.859375 98.027344 C 163.757812 98.027344 160.527344 93.703125 161.925781 89.773438 Z M 148.875 91.34375 L 157.035156 91.34375 C 157.035156 91.605469 157.035156 91.914062 157.035156 92.175781 L 148.875 92.175781 C 148.398438 92.175781 148.398438 91.300781 148.875 91.34375 Z M 148.875 96.71875 L 158.257812 96.71875 C 160.179688 100.648438 164.453125 102.875 168.863281 102.570312 L 168.863281 137.773438 C 169.167969 142.578125 165.457031 147.558594 163.144531 151.488281 C 160.832031 148.082031 156.078125 146.683594 152.191406 147.863281 C 152.191406 147.863281 144.820312 150.003906 144.820312 150.003906 L 122.433594 98.945312 C 121.429688 96.671875 119.160156 95.1875 116.671875 95.1875 L 105.546875 95.1875 L 105.546875 86.234375 L 143.074219 89.683594 C 143.507812 89.730469 143.988281 89.683594 144.425781 89.640625 C 142.855469 92.785156 145.34375 96.804688 148.875 96.71875 Z M 156.820312 155.898438 C 153.285156 157.734375 149.75 159.566406 146.214844 161.445312 L 143.988281 160.355469 C 142.550781 159.613281 140.714844 160.792969 140.761719 162.40625 C 140.761719 162.40625 140.761719 164.328125 140.761719 164.328125 L 138.578125 165.378906 L 136.703125 161.753906 C 136.089844 160.703125 136.441406 159.4375 137.09375 158.476562 L 144.382812 154.851562 L 153.503906 152.1875 C 155.117188 151.707031 156.90625 152.011719 158.300781 152.929688 Z M 157.734375 160.527344 L 152.238281 169.65625 L 140.0625 169.65625 L 143.945312 167.78125 C 144.644531 167.429688 145.125 166.773438 145.210938 166.03125 C 145.867188 166.339844 146.652344 166.339844 147.304688 165.988281 C 150.796875 164.15625 154.242188 162.363281 157.734375 160.527344 Z M 102.359375 73.785156 L 143.988281 81.167969 C 146.433594 81.605469 145.996094 85.359375 143.464844 85.1875 C 143.464844 85.1875 95.464844 80.773438 95.464844 80.773438 C 94.722656 80.730469 94.023438 80.339844 93.589844 79.769531 L 85.558594 69.679688 C 83.335938 67.058594 84.90625 62.648438 88.265625 61.949219 C 90.011719 61.558594 91.972656 62.167969 93.109375 63.523438 L 101.007812 73.042969 C 101.355469 73.4375 101.835938 73.699219 102.359375 73.785156 Z M 95.335938 33.296875 C 95.378906 37.578125 91.710938 41.246094 87.480469 41.160156 C 87.480469 41.160156 84.121094 41.160156 84.121094 41.160156 L 84.121094 27.925781 C 84.121094 27.402344 84.511719 26.964844 85.035156 26.964844 L 90.535156 26.964844 C 90.753906 27.097656 95.027344 27.007812 95.335938 27.050781 Z M 87.347656 45.703125 L 87.347656 45.921875 C 86.957031 45.832031 86.605469 45.746094 86.214844 45.703125 Z M 74.605469 32.90625 L 74.605469 23.90625 C 74.605469 19.320312 78.316406 15.566406 82.898438 15.566406 L 88.917969 15.566406 C 91.800781 15.566406 94.460938 17.050781 95.988281 19.539062 C 96.164062 19.84375 96.425781 20.109375 96.773438 20.28125 L 100.308594 22.421875 C 98.214844 22.464844 93.285156 22.597656 91.144531 22.421875 C 91.144531 22.421875 85.125 22.421875 85.125 22.421875 C 82.113281 22.421875 79.667969 24.867188 79.667969 27.925781 L 79.667969 40.503906 C 76.527344 39.238281 74.605469 36.222656 74.605469 32.90625 Z M 71.289062 97.460938 C 71.289062 97.460938 71.289062 60.246094 71.289062 60.246094 C 71.507812 47.492188 88.65625 48.191406 95.335938 55.574219 C 97.339844 57.582031 98.914062 60.070312 99.785156 62.78125 C 100.003906 63.609375 100.003906 64.660156 100.570312 65.355469 C 100.570312 65.355469 96.601562 60.597656 96.601562 60.597656 C 88.484375 51.511719 74.652344 62.648438 82.023438 72.476562 C 82.503906 73 90.753906 83.65625 91.101562 83.613281 C 93.238281 85.753906 98.300781 85.40625 101.050781 85.839844 L 101.050781 97.503906 C 101.050781 98.769531 102.054688 99.773438 103.320312 99.773438 L 116.714844 99.773438 C 117.414062 99.773438 118.027344 100.167969 118.332031 100.777344 L 140.628906 151.664062 C 140.238281 151.835938 136.875 153.539062 136.398438 153.757812 L 114.097656 113.269531 C 112.875 111.085938 110.5625 109.734375 108.078125 109.734375 L 83.507812 109.734375 C 76.746094 109.6875 71.289062 104.230469 71.289062 97.460938 Z M 132.644531 163.847656 L 135.523438 169.4375 C 135.566406 169.527344 135.65625 169.613281 135.699219 169.65625 L 125.660156 169.65625 L 106.460938 143.234375 L 106.460938 123.011719 C 109.777344 122.921875 112.570312 123.882812 112.179688 119.253906 L 132.816406 156.730469 C 131.554688 158.914062 131.464844 161.664062 132.644531 163.847656 Z M 71.289062 114.230469 C 78.882812 114.230469 98.214844 114.230469 106.027344 114.230469 C 107.726562 114.929688 107.726562 116.851562 107.683594 118.46875 C 101.355469 118.425781 77.53125 118.46875 71.335938 118.46875 L 71.335938 114.230469 Z M 10.765625 16.21875 C 10.765625 15.914062 11.160156 15.566406 11.726562 15.566406 L 60.730469 15.566406 C 61.296875 15.566406 61.691406 15.914062 61.691406 16.21875 L 61.691406 60.640625 C 61.691406 60.945312 61.296875 61.296875 60.730469 61.296875 L 11.726562 61.296875 C 11.160156 61.296875 10.765625 60.945312 10.765625 60.640625 Z M 10.765625 66.796875 C 10.765625 66.492188 11.160156 66.144531 11.726562 66.144531 L 60.730469 66.144531 C 61.296875 66.144531 61.691406 66.492188 61.691406 66.796875 L 61.691406 111.21875 C 61.691406 111.523438 61.296875 111.871094 60.730469 111.871094 L 11.726562 111.871094 C 11.160156 111.871094 10.765625 111.523438 10.765625 111.21875 Z M 23.507812 118.46875 L 7.625 118.46875 C 6.316406 118.511719 6.273438 116.414062 7.625 116.460938 C 14.695312 116.460938 59.988281 116.460938 66.753906 116.460938 L 66.753906 118.46875 L 34.984375 118.46875 C 32.191406 118.46875 29.964844 120.738281 29.964844 123.492188 L 29.964844 138.078125 C 29.488281 138.558594 29.007812 139.082031 28.570312 139.5625 L 28.570312 123.449219 C 28.527344 120.738281 26.300781 118.46875 23.507812 118.46875 Z M 52.65625 123.011719 C 46.070312 125.585938 39.960938 129.257812 34.503906 133.929688 L 34.503906 123.492188 C 34.503906 123.230469 34.722656 123.011719 34.984375 123.011719 Z M 14.824219 162.539062 C 14.5625 163.238281 14.34375 163.980469 14.125 164.679688 L 10.679688 164.679688 C 10.417969 164.679688 10.199219 164.460938 10.199219 164.199219 L 10.199219 154.195312 C 10.199219 153.933594 10.417969 153.714844 10.679688 153.714844 L 18.621094 153.714844 C 17.179688 156.554688 15.871094 159.480469 14.824219 162.539062 Z M 57.675781 202.765625 C 48.074219 202.765625 40.132812 195.515625 39 186.210938 L 49.253906 186.210938 C 51.523438 194.726562 63.785156 194.726562 66.054688 186.210938 L 76.308594 186.210938 C 75.175781 195.515625 67.230469 202.765625 57.675781 202.765625 Z M 54.183594 186.210938 L 61.167969 186.210938 C 59.683594 188.746094 55.625 188.699219 54.183594 186.210938 Z M 101.445312 181.667969 C 77.355469 181.667969 49.777344 181.667969 25.777344 181.667969 C 26.910156 159.085938 47.203125 142.445312 69.675781 144.367188 C 87.175781 144.367188 101.445312 158.652344 101.445312 176.164062 Z M 166.59375 178.394531 C 165.765625 180.359375 163.757812 181.667969 161.664062 181.667969 C 161.664062 181.667969 105.980469 181.667969 105.980469 181.667969 C 107.902344 156.816406 90.230469 138.210938 65.226562 139.828125 C 41.703125 139.828125 22.460938 158.390625 21.28125 181.667969 C 21.28125 181.667969 15.828125 181.667969 15.828125 181.667969 C 14.78125 181.667969 19.058594 164.199219 19.667969 162.625 C 22.023438 156.292969 25.472656 150.351562 29.75 145.15625 C 40.964844 131.441406 58.285156 123.097656 76.003906 123.011719 C 76.003906 123.011719 101.921875 123.011719 101.921875 123.011719 L 101.921875 143.976562 C 101.921875 144.457031 102.054688 144.9375 102.359375 145.328125 L 122.652344 173.28125 C 123.085938 173.894531 123.742188 174.199219 124.484375 174.199219 L 153.546875 174.199219 C 154.332031 174.199219 155.074219 173.761719 155.507812 173.109375 L 170.5625 147.90625 C 172.398438 144.847656 173.402344 141.355469 173.402344 137.773438 L 173.402344 102.570312 C 174.230469 102.570312 175.976562 102.570312 176.804688 102.570312 L 179.464844 130.699219 C 179.507812 131.046875 179.640625 131.398438 179.816406 131.703125 L 189.066406 146.246094 C 186.011719 146.550781 182.957031 146.945312 180.078125 148.082031 C 179.507812 148.300781 179.03125 148.78125 178.769531 149.347656 Z M 193.472656 202.765625 C 182.390625 202.851562 173.445312 192.851562 174.839844 181.800781 L 185.402344 180.796875 C 183.042969 186.296875 187.496094 192.851562 193.472656 192.71875 C 200.191406 192.9375 204.558594 184.8125 200.804688 179.308594 L 211.363281 178.304688 C 215.378906 190.054688 205.953125 202.984375 193.472656 202.765625 Z M 189.328125 183.941406 C 189.328125 182.238281 190.332031 180.796875 191.769531 180.140625 L 194.433594 179.878906 C 196.265625 180.316406 197.664062 181.972656 197.664062 183.941406 C 197.574219 189.441406 189.414062 189.441406 189.328125 183.941406 Z M 213.632812 173.5 C 213.328125 173.371094 212.980469 173.328125 212.628906 173.328125 L 172.746094 177.171875 C 172.484375 177.214844 172.222656 177.300781 171.960938 177.386719 C 172.527344 175.992188 181.996094 153.628906 182.652344 151.96875 C 199.363281 146.902344 216.46875 155.289062 219.828125 172.890625 Z M 28.703125 55.703125 C 28.964844 56.710938 29.878906 57.453125 30.882812 57.453125 L 41.441406 57.453125 C 42.492188 57.453125 43.40625 56.753906 43.625 55.703125 L 49.910156 30.066406 C 50.300781 28.667969 49.125 27.226562 47.726562 27.269531 C 47.726562 27.269531 40.003906 27.269531 40.003906 27.269531 L 40.746094 24.039062 L 44.542969 24.039062 C 47.507812 24.039062 47.507812 19.496094 44.542969 19.496094 C 44.542969 19.496094 38.914062 19.496094 38.914062 19.496094 C 37.863281 19.496094 36.949219 20.238281 36.6875 21.242188 L 35.289062 27.226562 L 24.597656 27.226562 C 23.902344 27.226562 23.246094 27.53125 22.808594 28.101562 C 22.375 28.667969 22.242188 29.367188 22.375 30.023438 Z M 44.847656 31.769531 L 39.652344 52.867188 L 32.671875 52.867188 L 27.523438 31.769531 Z M 26.476562 105.277344 L 46.285156 105.277344 C 52.003906 105.277344 56.671875 99.644531 56.671875 92.742188 C 56.671875 91.171875 55.1875 90.253906 53.75 90.472656 C 53.921875 88.289062 53.398438 85.796875 51.742188 84.269531 L 57.109375 72.824219 C 57.632812 71.691406 57.152344 70.335938 56.019531 69.8125 C 54.882812 69.289062 53.53125 69.769531 53.007812 70.902344 L 47.769531 82.085938 C 45.675781 81.5625 42.578125 81.429688 41.226562 80.425781 C 40.222656 79.902344 38.957031 79.203125 36.90625 79.683594 C 34.199219 80.425781 34.765625 81.253906 32.105469 82.433594 C 30.011719 83.484375 29.050781 83.917969 28.046875 83.703125 C 27.4375 83.570312 27.128906 83.308594 26.648438 82.957031 C 21.71875 78.898438 18.054688 86.539062 18.359375 90.472656 C 17.179688 90.558594 16.222656 91.519531 16.222656 92.699219 C 16.089844 99.644531 20.757812 105.277344 26.476562 105.277344 Z M 22.765625 90.296875 C 22.855469 88.636719 23.421875 87.238281 23.8125 86.628906 C 26.476562 89.160156 30.882812 88.460938 34.070312 86.496094 C 36.292969 85.492188 36.644531 84.707031 37.820312 84.09375 C 38.214844 84.007812 38.214844 84.007812 39.042969 84.445312 C 39.871094 84.96875 42.445312 85.972656 44.757812 86.148438 C 47.203125 86.367188 49.691406 87.328125 49.125 90.472656 L 22.765625 90.472656 C 22.765625 90.425781 22.765625 90.339844 22.765625 90.296875 Z M 51.085938 95.015625 L 51.871094 95.015625 C 51.175781 98.332031 48.90625 100.734375 46.285156 100.734375 L 26.476562 100.734375 C 23.8125 100.734375 21.589844 98.332031 20.890625 95.015625 Z M 51.085938 95.015625 " fill-opacity="1" fill-rule="nonzero"/></g></svg>