<svg xmlns="http://www.w3.org/2000/svg" xmlns:xlink="http://www.w3.org/1999/xlink" width="300" zoomAndPan="magnify" viewBox="0 0 224.87999 225" height="300" preserveAspectRatio="xMidYMid meet" version="1.0"><defs><clipPath id="cd929c5a40"><path d="M 2.019531 22.546875 L 224.761719 22.546875 L 224.761719 221.941406 L 2.019531 221.941406 Z M 2.019531 22.546875 " clip-rule="nonzero"/></clipPath><clipPath id="f0f100be6c"><path d="M 66 89 L 162 89 L 162 176.578125 L 66 176.578125 Z M 66 89 " clip-rule="nonzero"/></clipPath></defs><g clip-path="url(#cd929c5a40)"><path fill="#ffffff" d="M 114.457031 221.890625 L 112.074219 220.269531 C 111.804688 220.089844 84.414062 201.371094 57.429688 175.5 C 41.507812 160.199219 28.777344 145.441406 19.605469 131.582031 C 7.957031 113.851562 2.019531 97.429688 2.019531 82.851562 C 2.019531 49.640625 29.050781 22.597656 62.242188 22.597656 C 74.566406 22.597656 86.484375 26.378906 96.648438 33.578125 C 104.023438 38.796875 110.050781 45.457031 114.457031 53.105469 C 118.867188 45.414062 124.894531 38.753906 132.269531 33.578125 C 142.433594 26.378906 154.351562 22.597656 166.675781 22.597656 C 199.867188 22.597656 226.898438 49.640625 226.898438 82.851562 L 226.898438 82.894531 C 226.761719 97.382812 220.78125 113.671875 209.089844 131.355469 C 199.914062 145.214844 187.230469 159.976562 171.308594 175.320312 C 144.367188 201.28125 117.113281 220.089844 116.84375 220.269531 Z M 62.242188 31.011719 C 33.679688 31.011719 10.429688 54.277344 10.429688 82.851562 C 10.429688 95.765625 15.871094 110.566406 26.621094 126.855469 C 35.390625 140.175781 47.714844 154.484375 63.1875 169.335938 C 85.089844 190.347656 107.308594 206.59375 114.457031 211.632812 C 121.609375 206.546875 143.691406 190.214844 165.550781 169.15625 C 180.976562 154.261719 193.257812 139.996094 202.070312 126.675781 C 212.820312 110.386719 218.351562 95.675781 218.441406 82.851562 C 218.441406 54.277344 195.191406 31.058594 166.628906 31.058594 C 145.445312 31.058594 126.0625 44.46875 118.328125 64.445312 L 114.414062 74.617188 L 110.546875 64.445312 C 102.808594 44.46875 83.425781 31.011719 62.242188 31.011719 Z M 62.242188 31.011719 " fill-opacity="1" fill-rule="nonzero"/></g><path fill="#ffffff" d="M 108.523438 110.09375 C 108.523438 111.527344 107.296875 112.957031 105.867188 112.957031 C 104.433594 112.957031 103.207031 111.730469 103.207031 110.09375 C 103.207031 108.457031 104.433594 107.230469 105.867188 107.230469 C 107.503906 107.230469 108.523438 108.457031 108.523438 110.09375 Z M 108.523438 110.09375 " fill-opacity="1" fill-rule="evenodd"/><path fill="#ffffff" d="M 119.777344 102.933594 C 119.777344 104.570312 118.550781 105.796875 117.117188 105.796875 C 115.6875 105.796875 114.457031 104.570312 114.457031 102.933594 C 114.457031 101.5 115.6875 100.066406 117.117188 100.066406 C 118.550781 100.066406 119.777344 101.296875 119.777344 102.933594 Z M 119.777344 102.933594 " fill-opacity="1" fill-rule="evenodd"/><path fill="#ffffff" d="M 120.800781 118.277344 C 120.800781 119.710938 119.574219 121.140625 118.140625 121.140625 C 116.707031 121.140625 115.480469 119.914062 115.480469 118.277344 C 115.480469 116.640625 116.707031 115.414062 118.140625 115.414062 C 119.574219 115.414062 120.800781 116.84375 120.800781 118.277344 Z M 120.800781 118.277344 " fill-opacity="1" fill-rule="evenodd"/><g clip-path="url(#f0f100be6c)"><path fill="#ffffff" d="M 77.015625 156.128906 C 80.289062 157.152344 91.339844 160.425781 114.457031 160.425781 C 137.578125 160.425781 148.625 157.152344 151.898438 156.128906 L 151.898438 157.355469 C 151.898438 162.675781 150.058594 165.949219 146.988281 168.402344 C 143.921875 170.652344 139.417969 171.882812 134.304688 171.882812 L 94.816406 171.882812 C 89.703125 171.882812 85.199219 170.652344 82.132812 168.402344 C 79.0625 166.152344 77.222656 162.675781 77.222656 157.355469 L 77.222656 156.128906 Z M 78.859375 146.714844 C 88.472656 146.714844 101.160156 147.125 109.957031 152.242188 C 111.183594 153.058594 112.617188 153.878906 114.457031 153.878906 C 116.300781 153.878906 117.730469 152.855469 118.960938 152.242188 C 128.574219 146.511719 142.898438 146.714844 152.71875 146.714844 C 153.332031 147.332031 153.945312 148.148438 153.945312 149.171875 C 153.945312 150.195312 153.742188 151.011719 153.128906 151.421875 C 152.511719 151.625 140.238281 156.128906 114.457031 156.128906 C 88.679688 156.128906 76.402344 151.625 75.789062 151.421875 C 75.175781 151.011719 74.765625 150.398438 74.972656 149.171875 C 74.972656 148.148438 75.585938 147.332031 76.199219 146.714844 C 77.015625 146.714844 77.835938 146.714844 78.859375 146.714844 Z M 75.175781 137.917969 C 76.609375 138.738281 78.449219 139.144531 80.496094 138.738281 C 81.925781 138.328125 82.542969 138.328125 82.949219 138.53125 C 83.359375 138.53125 84.179688 138.941406 85.816406 139.964844 C 88.679688 141.804688 92.769531 142.417969 96.660156 140.988281 C 99.726562 139.964844 100.136719 139.964844 103.820312 141.601562 C 106.683594 142.828125 109.34375 142.625 111.183594 142.011719 C 113.027344 141.398438 114.050781 140.78125 114.664062 140.78125 C 115.277344 140.78125 116.300781 141.398438 118.140625 142.011719 C 119.984375 142.625 122.4375 142.828125 125.507812 141.601562 C 129.1875 139.964844 129.597656 139.964844 132.667969 140.988281 C 136.554688 142.417969 140.648438 141.804688 143.511719 139.964844 C 145.148438 138.941406 145.964844 138.53125 146.375 138.53125 C 146.785156 138.53125 147.398438 138.53125 148.832031 138.738281 C 150.875 139.144531 152.71875 138.738281 154.148438 137.917969 L 157.015625 139.964844 C 158.039062 140.78125 158.039062 141.601562 158.039062 141.804688 C 158.039062 142.214844 158.039062 142.417969 156.605469 142.417969 C 147.195312 142.417969 129.804688 141.191406 117.324219 148.558594 C 116.09375 149.375 115.277344 149.582031 115.070312 149.582031 C 114.664062 149.582031 114.050781 149.171875 112.820312 148.558594 C 100.339844 141.191406 82.746094 142.625 73.539062 142.417969 C 72.105469 142.417969 72.105469 142.011719 72.105469 141.804688 C 72.105469 141.398438 72.105469 140.578125 73.128906 139.964844 Z M 150.46875 130.347656 C 152.511719 131.371094 152.71875 132.597656 152.71875 133.417969 C 152.511719 134.441406 151.898438 135.257812 149.445312 134.851562 C 148.011719 134.644531 146.785156 134.234375 145.351562 134.644531 C 143.921875 134.851562 142.898438 135.667969 141.261719 136.691406 C 139.625 137.917969 136.757812 138.328125 133.894531 137.304688 C 130.417969 136.078125 127.757812 136.28125 123.871094 137.917969 C 121.824219 138.738281 120.597656 138.53125 119.367188 138.125 C 117.9375 137.714844 116.503906 136.691406 114.457031 136.691406 C 112.414062 136.691406 110.980469 137.714844 109.753906 138.125 C 108.523438 138.53125 107.296875 138.738281 105.25 137.917969 C 101.160156 136.078125 98.703125 136.078125 95.226562 137.304688 C 92.363281 138.328125 89.496094 137.917969 87.859375 136.691406 C 86.222656 135.667969 84.996094 134.851562 83.769531 134.644531 C 82.335938 134.441406 81.3125 134.644531 79.675781 134.851562 C 77.222656 135.464844 76.609375 134.441406 76.402344 133.417969 C 76.199219 132.597656 76.609375 131.371094 78.652344 130.347656 C 80.699219 131.574219 82.949219 132.191406 85.609375 132.191406 L 143.511719 132.191406 C 145.964844 132.191406 148.421875 131.574219 150.46875 130.347656 Z M 114.457031 93.726562 C 125.097656 93.726562 134.507812 96.792969 141.261719 101.703125 C 148.011719 106.613281 151.898438 113.367188 151.898438 121.347656 C 151.898438 124.621094 148.832031 128.300781 143.308594 128.300781 L 85.609375 128.300781 C 80.085938 128.300781 77.015625 124.621094 77.015625 121.347656 C 77.015625 113.367188 80.90625 106.613281 87.65625 101.703125 C 94.40625 96.589844 103.820312 93.726562 114.457031 93.726562 Z M 114.457031 89.429688 C 103.207031 89.429688 92.769531 92.496094 85.199219 98.226562 C 77.628906 103.75 72.71875 111.933594 72.71875 121.347656 C 72.71875 123.800781 73.742188 126.257812 75.378906 128.097656 C 73.128906 129.734375 72.105469 132.191406 72.515625 134.441406 C 72.515625 134.441406 72.515625 134.644531 72.515625 134.644531 L 69.652344 136.691406 C 67.605469 138.328125 66.582031 140.578125 66.992188 142.828125 C 67.402344 144.671875 69.039062 146.101562 71.082031 146.714844 C 70.878906 147.535156 70.675781 148.148438 70.46875 148.96875 C 70.265625 151.011719 70.878906 153.261719 72.515625 154.695312 L 72.515625 157.558594 C 72.515625 163.902344 75.175781 168.8125 79.265625 171.882812 C 83.359375 174.949219 88.679688 176.179688 94.613281 176.179688 L 134.101562 176.179688 C 139.828125 176.179688 145.351562 174.949219 149.445312 171.882812 C 153.535156 168.8125 155.992188 163.902344 155.992188 157.558594 L 155.992188 154.695312 C 157.628906 153.261719 158.242188 151.011719 158.039062 148.96875 C 158.039062 148.148438 157.832031 147.535156 157.425781 146.714844 C 159.46875 146.308594 161.105469 144.671875 161.515625 142.828125 C 161.925781 140.578125 160.902344 138.125 158.855469 136.691406 L 155.992188 134.644531 C 155.992188 134.644531 155.992188 134.441406 155.992188 134.441406 C 156.402344 132.191406 155.378906 129.734375 153.128906 128.097656 C 154.765625 126.257812 155.789062 123.800781 155.789062 121.347656 C 155.789062 111.933594 150.875 103.957031 143.308594 98.226562 C 136.144531 92.496094 125.914062 89.429688 114.457031 89.429688 Z M 114.457031 89.429688 " fill-opacity="1" fill-rule="evenodd"/></g><path fill="#ffffff" d="M 156.605469 66.105469 C 148.625 66.105469 141.261719 67.128906 135.53125 68.558594 C 132.667969 69.378906 130.210938 70.195312 128.167969 71.21875 C 126.121094 72.242188 124.6875 73.46875 123.664062 75.3125 C 123.257812 76.128906 123.257812 76.742188 123.257812 77.5625 L 123.257812 87.585938 C 123.257812 88.816406 124.277344 89.632812 125.300781 89.632812 C 126.53125 89.632812 127.347656 88.609375 127.347656 87.585938 L 127.347656 83.496094 C 127.960938 83.90625 128.574219 84.109375 129.394531 84.519531 C 133.691406 86.566406 140.03125 87.792969 147.601562 88.609375 C 155.378906 89.222656 163.152344 89.019531 170.109375 88.203125 C 177.066406 87.382812 183 85.746094 186.886719 83.496094 C 186.886719 83.496094 187.089844 83.289062 187.089844 83.289062 L 187.089844 90.65625 C 187.089844 90.859375 186.886719 91.679688 185.453125 92.496094 C 184.226562 93.316406 181.976562 94.339844 179.109375 95.15625 C 173.585938 96.792969 165.609375 97.816406 157.015625 97.816406 C 154.765625 97.816406 152.511719 97.816406 150.46875 97.613281 C 149.238281 97.613281 148.21875 98.429688 148.21875 99.660156 C 148.21875 100.886719 149.035156 101.910156 150.261719 101.910156 C 152.511719 102.113281 154.765625 102.113281 157.015625 102.113281 C 166.015625 102.113281 174.199219 101.089844 180.339844 99.25 C 181.363281 99.046875 182.179688 98.636719 183.203125 98.429688 L 179.929688 153.261719 C 179.929688 154.695312 179.316406 156.945312 176.453125 159.195312 C 173.585938 161.242188 168.269531 163.289062 158.652344 163.492188 C 157.628906 163.492188 156.808594 164.3125 156.808594 165.539062 C 156.808594 166.5625 157.628906 167.378906 158.855469 167.378906 C 168.882812 167.175781 175.019531 165.128906 178.90625 162.265625 C 182.589844 159.402344 183.816406 155.921875 184.023438 153.671875 L 187.910156 96.386719 C 188.113281 96.179688 188.316406 96.179688 188.523438 95.976562 C 190.363281 94.75 192 92.90625 192 90.65625 L 192 77.359375 C 192 75.925781 191.183594 74.699219 190.363281 73.675781 C 187.910156 70.808594 183.40625 69.171875 176.65625 67.742188 C 175.429688 67.535156 174.40625 68.152344 174.199219 69.378906 C 173.996094 70.605469 174.609375 71.628906 175.835938 71.832031 C 181.976562 73.0625 186.066406 75.105469 187.089844 76.335938 C 187.703125 76.949219 187.703125 77.152344 187.5 77.359375 C 187.296875 77.765625 186.886719 78.585938 185.25 79.402344 C 182.179688 81.246094 176.65625 82.675781 170.109375 83.496094 C 163.5625 84.3125 155.789062 84.519531 148.421875 83.90625 C 141.054688 83.496094 134.917969 82.269531 131.441406 80.425781 C 126.734375 78.175781 126.734375 76.742188 130.417969 74.902344 C 132.054688 74.085938 134.101562 73.265625 136.757812 72.652344 C 142.078125 71.21875 149.035156 70.402344 156.808594 70.402344 C 158.039062 70.402344 158.855469 69.378906 158.855469 68.355469 C 158.855469 66.921875 157.832031 66.105469 156.605469 66.105469 Z M 156.605469 66.105469 " fill-opacity="1" fill-rule="nonzero"/><path fill="#ffffff" d="M 170.925781 48.304688 C 171.132812 48.304688 171.335938 48.304688 171.542969 48.304688 C 172.5625 48.507812 172.972656 49.53125 172.769531 50.351562 C 170.519531 58.738281 168.269531 67.128906 166.015625 75.515625 C 164.992188 75.925781 164.175781 76.335938 163.5625 76.128906 C 163.152344 76.128906 162.742188 75.722656 162.335938 75.3125 L 169.289062 49.53125 C 169.496094 48.917969 170.109375 48.304688 170.925781 48.304688 Z M 171.132812 44.210938 C 168.472656 44.210938 166.015625 46.054688 165.402344 48.714844 L 158.039062 75.722656 C 157.832031 76.335938 158.039062 76.949219 158.242188 77.359375 C 159.265625 78.996094 161.105469 80.222656 162.949219 80.632812 C 164.789062 80.835938 166.835938 80.425781 168.882812 79.199219 C 169.289062 78.996094 169.699219 78.378906 169.90625 77.972656 L 176.859375 51.78125 C 177.679688 48.714844 175.835938 45.234375 172.5625 44.417969 C 172.15625 44.210938 171.542969 44.210938 171.132812 44.210938 Z M 171.132812 44.210938 " fill-opacity="1" fill-rule="nonzero"/><path fill="#ffffff" d="M 46.941406 84.929688 L 53.898438 103.339844 L 48.988281 103.339844 C 48.578125 103.339844 48.375 103.339844 47.964844 103.339844 L 41.824219 86.769531 Z M 73.539062 55.875 C 72.3125 55.875 71.492188 56.898438 71.492188 57.921875 L 71.492188 60.785156 L 62.082031 60.785156 C 60.855469 60.785156 60.035156 61.808594 60.035156 62.832031 L 60.035156 73.46875 L 57.988281 67.945312 C 57.582031 66.921875 56.351562 66.308594 55.328125 66.71875 L 44.484375 70.808594 C 43.464844 71.21875 42.847656 72.449219 43.257812 73.46875 L 45.917969 80.632812 L 38.550781 83.496094 C 37.53125 83.90625 36.914062 85.132812 37.324219 86.15625 L 44.078125 104.570312 C 41.824219 106.207031 40.804688 109.273438 41.210938 111.527344 L 49.191406 159.605469 C 49.601562 161.652344 50.214844 163.289062 51.648438 164.722656 C 53.078125 166.152344 54.921875 167.175781 57.171875 167.175781 L 70.265625 167.175781 C 71.492188 167.175781 72.3125 166.152344 72.3125 165.128906 C 72.3125 163.902344 71.289062 163.085938 70.265625 163.085938 L 57.171875 163.085938 C 56.148438 163.085938 55.535156 162.675781 54.714844 162.0625 C 54.101562 161.449219 53.488281 160.21875 53.285156 158.992188 L 45.304688 110.910156 C 45.101562 109.890625 45.507812 109.070312 45.917969 108.457031 C 46.53125 107.84375 47.351562 107.433594 48.988281 107.433594 L 60.035156 107.433594 C 61.261719 112.34375 64.332031 116.84375 67.808594 119.300781 C 68.832031 119.914062 70.0625 119.710938 70.878906 118.890625 C 71.492188 117.867188 71.289062 116.640625 70.46875 115.820312 C 67.195312 113.367188 64.742188 109.890625 64.128906 104.976562 C 63.921875 103.957031 63.105469 103.136719 62.082031 103.136719 L 58.601562 103.136719 L 47.757812 74.085938 L 54.714844 71.425781 L 60.035156 85.542969 L 61.058594 98.023438 C 61.261719 100.273438 64.128906 100.476562 64.128906 98.023438 L 64.128906 64.878906 L 71.492188 64.878906 L 72.515625 102.113281 C 72.515625 104.160156 75.789062 104.570312 75.789062 102.113281 L 75.789062 59.96875 L 83.15625 59.96875 L 83.15625 63.035156 L 83.769531 93.316406 C 83.769531 95.769531 87.246094 96.179688 87.246094 93.316406 L 87.246094 65.082031 L 94.613281 65.082031 L 95.429688 85.542969 C 95.429688 87.996094 97.476562 88.40625 98.296875 86.359375 L 104.226562 71.832031 L 111.183594 74.492188 L 107.09375 85.746094 C 106.070312 88.609375 109.34375 89.222656 110.160156 87.179688 L 115.890625 74.085938 C 116.300781 73.0625 115.6875 71.832031 114.664062 71.425781 L 103.820312 67.332031 C 102.796875 66.921875 101.570312 67.535156 101.160156 68.558594 L 99.113281 74.085938 L 99.113281 63.035156 C 99.113281 61.808594 98.089844 60.988281 97.066406 60.988281 L 87.65625 60.988281 L 87.65625 58.125 C 87.65625 56.898438 86.632812 56.078125 85.609375 56.078125 L 73.539062 56.078125 Z M 73.539062 55.875 " fill-opacity="1" fill-rule="nonzero"/></svg>